<svg width="663" height="530" viewBox="0 0 663 530" fill="none" xmlns="http://www.w3.org/2000/svg">
<path fill-rule="evenodd" clip-rule="evenodd" d="M312.225 16.0775C358.748 26.8243 390.384 66.1192 435.367 82.1316C509.406 108.486 627.638 66.8023 658.168 139.219C687.545 208.904 570.742 256.859 537.708 324.887C511.637 378.575 531.476 452.346 486.862 491.991C441.454 532.341 372.179 535.025 312.225 525.253C257.812 516.384 221.165 470.556 174.57 441.088C123.492 408.784 55.9726 397.201 26.4052 344.491C-5.39058 287.809 -7.0929 216.199 13.9214 154.698C34.7702 93.6821 80.9374 40.9391 139.412 13.7663C192.967 -11.1204 254.685 2.78598 312.225 16.0775Z" fill="url(#paint0_linear_1_5)"/>
<defs>
<linearGradient id="paint0_linear_1_5" x1="-31" y1="103.5" x2="602" y2="344" gradientUnits="userSpaceOnUse">
<stop stop-color="#FFC19C"/>
<stop offset="1" stop-color="#FFC19C"/>
</linearGradient>
</defs>
</svg>
