<svg width="286" height="240" viewBox="0 0 286 240" fill="none" xmlns="http://www.w3.org/2000/svg">
<path fill-rule="evenodd" clip-rule="evenodd" d="M127.72 0.710705C152.021 -6.11351 157.055 38.247 180.701 46.5827C210.231 56.9928 251.396 33.7937 274.651 52.5063C295.609 69.3706 281.831 100.586 278.124 124.977C274.77 147.051 266.552 167.761 254.162 187.342C241.5 207.352 231.917 241.943 205.397 239.915C169.426 237.163 163.724 180.089 127.72 177.671C96.0532 175.545 88.4163 227.426 56.7876 229.937C31.4851 231.945 -4.1512 209.137 0.395521 187.778C6.93131 157.075 65.2086 153.828 79.1307 124.977C86.1313 110.47 45.7467 101.71 49.3528 86.3237C52.3933 73.3504 82.102 82.0147 91.6423 71.5923C110.542 50.9451 98.5739 8.89576 127.72 0.710705Z" fill="url(#paint0_linear_1_9)"/>
<defs>
<linearGradient id="paint0_linear_1_9" x1="143" y1="0" x2="143" y2="240" gradientUnits="userSpaceOnUse">
<stop offset="0.447115" stop-color="#FFBEAF"/>
<stop offset="0.629808" stop-color="#F3C1C9"/>
<stop offset="1" stop-color="#DBC7FF"/>
</linearGradient>
</defs>
</svg>
