<svg width="253" height="255" viewBox="0 0 253 255" fill="none" xmlns="http://www.w3.org/2000/svg">
<path fill-rule="evenodd" clip-rule="evenodd" d="M128.635 1.33845C151.802 8.35757 151.768 45.871 172.575 58.3774C193.014 70.6627 224.656 52.6093 241.768 69.3393C257.911 85.122 252.014 112.945 251.668 135.705C251.326 158.186 251.21 181.651 239.766 200.896C228.402 220.007 210.307 237.145 188.754 241.504C167.897 245.723 149.807 221.344 128.635 223.374C103.858 225.749 84.9955 262.283 61.5879 253.696C39.9684 245.764 47.3669 210.322 36.688 189.642C26.5803 170.067 3.93854 157.557 0.661183 135.705C-2.70602 113.253 7.30584 90.7485 18.949 71.3619C30.4343 52.238 47.7484 38.1334 66.4183 26.2145C85.6163 13.9584 106.907 -5.24451 128.635 1.33845Z" fill="url(#paint0_linear_1_7)"/>
<defs>
<linearGradient id="paint0_linear_1_7" x1="126.5" y1="0" x2="126.5" y2="255" gradientUnits="userSpaceOnUse">
<stop offset="0.432692" stop-color="#D5C4F6"/>
<stop offset="0.889423" stop-color="#879FF3"/>
<stop offset="1" stop-color="#909FF1"/>
</linearGradient>
</defs>
</svg>
