<svg width="179" height="195" viewBox="0 0 179 195" fill="none" xmlns="http://www.w3.org/2000/svg">
<path fill-rule="evenodd" clip-rule="evenodd" d="M89.1852 14.0516C110.233 14.0472 131.189 -5.34074 150.018 4.21788C168.899 13.8029 178.83 38.2004 178.999 59.6468C179.155 79.3334 155.995 90.6809 150.85 109.661C145.258 130.288 160.939 154.984 148.477 172.229C135.659 189.969 110.844 194.954 89.1852 195C67.4992 195.046 46.3044 186.672 29.7137 172.48C13.8597 158.919 1.04068 139.771 0.0298989 118.738C-0.898132 99.4266 20.0519 86.7577 24.6931 68.0074C29.9323 46.8413 11.789 18.1152 28.3703 4.24278C44.6137 -9.34686 68.1449 14.0559 89.1852 14.0516Z" fill="url(#paint0_linear_1_5)"/>
<defs>
<linearGradient id="paint0_linear_1_5" x1="89.5" y1="0" x2="89.5" y2="195" gradientUnits="userSpaceOnUse">
<stop offset="0.466346" stop-color="#A3F5F5"/>
<stop offset="1" stop-color="#1BC0C0" stop-opacity="0.971333"/>
</linearGradient>
</defs>
</svg>
